<svg version="1.1" id="Layer_1" xmlns:x="ns_extend;" xmlns:i="ns_ai;" xmlns:graph="ns_graphs;"
	xmlns="http://www.w3.org/2000/svg" xmlns:xlink="http://www.w3.org/1999/xlink" x="0px" y="0px" viewBox="0 0 405.5 92"
	style="enable-background:new 0 0 405.5 92;" xml:space="preserve">
	<style type="text/css">
		.st0 {
			fill: #030303;
		}
	</style>
	<metadata>
		<sfw xmlns="ns_sfw;">
			<slices>
			</slices>
			<sliceSourceBounds bottomLeftOrigin="true" height="92" width="405.5" x="-136.6" y="-31">
			</sliceSourceBounds>
		</sfw>
	</metadata>
	<g>
		<path class="st0" d="M44.7,0C20,0,0,19.5,0,43.6s20,43.6,44.7,43.6c24.7,0,44.7-19.5,44.7-43.6S69.4,0,44.7,0z M48.7,72.3
		C48.7,72.3,48.7,72.3,48.7,72.3c-0.1,0-0.2,0-0.3-0.1c-0.1-0.1-0.1-0.1-0.1-0.2V59.9c0-0.1,0.1-0.3,0.2-0.3
		c6.1-1.4,11-6.1,12.4-12.1c0-0.1,0.2-0.2,0.3-0.2h12.4c0.1,0,0.2,0,0.2,0.1c0.1,0.1,0.1,0.2,0.1,0.2C72.3,60.4,61.9,70.6,48.7,72.3
		z M73.7,40.3C73.7,40.3,73.7,40.3,73.7,40.3H61.3c-0.1,0-0.3-0.1-0.3-0.2c-1.8-7.4-8.5-12.6-16.2-12.6c-9.2,0-16.7,7.3-16.7,16.3
		c0,7.6,5.3,14.1,12.9,15.8c0.1,0,0.2,0.2,0.2,0.3V72c0,0.1,0,0.2-0.1,0.2c-0.1,0.1-0.1,0.1-0.2,0.1c0,0,0,0,0,0
		c-14.6-1.9-25.6-14.2-25.6-28.5c0-15.9,13.3-28.8,29.6-28.8C59.5,14.9,72,25.6,74,39.8c0,0,0,0.1,0,0.1
		C74.1,40.1,73.9,40.3,73.7,40.3z">
		</path>
		<path class="st0" d="M115.2,43.7c0-4,0.8-7.9,2.4-11.6c1.6-3.7,3.7-6.8,6.4-9.5c2.7-2.7,6-4.8,9.8-6.4c3.8-1.6,7.9-2.4,12.2-2.4
		s8.3,0.8,12.1,2.4c3.8,1.6,7.1,3.8,9.9,6.7l-6.5,7.2c-4-4.6-9.2-6.9-15.5-6.9c-3.8,0-7.2,0.9-10.3,2.8c-3.1,1.9-5.6,4.4-7.4,7.5
		c-1.8,3.1-2.7,6.6-2.7,10.2c0,3.7,0.9,7.1,2.7,10.2c1.8,3.1,4.3,5.6,7.4,7.4c3.1,1.8,6.6,2.7,10.3,2.7c2.7,0,5.4-0.6,8.1-1.8
		c2.7-1.2,5-2.7,6.9-4.6l6.1,7.1c-2.9,2.7-6.1,4.8-9.7,6.3c-3.6,1.5-7.4,2.3-11.5,2.3c-5.6,0-10.7-1.3-15.4-3.9
		c-4.7-2.6-8.5-6.2-11.3-10.7C116.6,54.2,115.2,49.2,115.2,43.7z M174,72.4V14.9h9.8v23.3c1-0.7,1.8-1.3,2.4-1.7
		c0.7-0.4,1.7-0.8,3.1-1.2c1.4-0.4,2.9-0.6,4.5-0.6c2.1,0,4.1,0.3,5.9,0.9s3.4,1.6,4.9,2.8c1.5,1.3,2.6,3,3.4,5.1
		c0.8,2.1,1.2,4.6,1.2,7.4v21.3h-9.8V52.7c0-5.8-2.6-8.7-7.8-8.7c-5.2,0-7.8,2.9-7.8,8.6v19.8L174,72.4L174,72.4z M217.7,27.6
		c-1.2-1.2-1.8-2.6-1.8-4.3c0-1.7,0.6-3.1,1.8-4.3c1.2-1.1,2.7-1.7,4.4-1.7c1.7,0,3.2,0.6,4.4,1.7c1.2,1.1,1.7,2.6,1.7,4.3
		c0,1.7-0.6,3.2-1.7,4.3s-2.6,1.7-4.4,1.7C220.4,29.3,218.9,28.7,217.7,27.6z M217.2,72.4V35.4h9.8v36.9H217.2z M235.8,92V35.4h9.8
		v2.7c2.9-2.3,6.4-3.4,10.5-3.4c5.6,0,10.3,1.9,14.2,5.6c3.9,3.7,5.8,8.3,5.8,13.7c0,3.5-0.9,6.7-2.7,9.7c-1.8,3-4.2,5.3-7.3,7
		c-3.1,1.7-6.4,2.6-10.1,2.6c-4.1,0-7.6-1.1-10.5-3.4v22H235.8z M245.6,54.5c0.1,2.7,1.2,4.9,3.2,6.8c2,1.9,4.5,2.9,7.3,2.9
		c2.9,0,5.3-1,7.4-3c2-2,3.1-4.4,3.1-7.1c0-2.7-1-5.1-3.1-7.1c-2-2-4.5-3-7.4-3c-2.8,0-5.2,1-7.3,2.9c-2,1.9-3.1,4.2-3.2,6.8V54.5z
		 M281.7,92V35.4h9.8v2.7c2.9-2.3,6.4-3.4,10.5-3.4c5.6,0,10.3,1.9,14.2,5.6c3.9,3.7,5.8,8.3,5.8,13.7c0,3.5-0.9,6.7-2.7,9.7
		c-1.8,3-4.2,5.3-7.3,7c-3.1,1.7-6.4,2.6-10.1,2.6c-4.1,0-7.6-1.1-10.5-3.4v22H281.7z M291.5,54.5c0.1,2.7,1.2,4.9,3.2,6.8
		c2,1.9,4.5,2.9,7.3,2.9c2.9,0,5.3-1,7.4-3c2-2,3.1-4.4,3.1-7.1c0-2.7-1-5.1-3.1-7.1c-2-2-4.5-3-7.4-3c-2.8,0-5.2,1-7.3,2.9
		c-2,1.9-3.1,4.2-3.2,6.8V54.5z M325.8,54.3c0-2.6,0.5-5.1,1.4-7.5c0.9-2.4,2.2-4.4,3.9-6.2c1.7-1.8,3.7-3.2,6.2-4.2
		c2.5-1,5.2-1.6,8.1-1.6c3.6,0,6.9,0.9,9.8,2.7c2.9,1.8,5.2,4.1,6.8,7c1.6,2.9,2.4,6.1,2.4,9.6c0,1.1-0.1,2.1-0.2,3h-28.8
		c0.6,2.3,1.8,4.2,3.6,5.5c1.9,1.4,4.2,2.1,6.9,2.1c1.8,0,3.5-0.3,5.2-1c1.7-0.7,3-1.7,4.1-3.1l6.7,5.2c-1.7,2.4-4,4.2-6.8,5.6
		c-2.8,1.3-5.9,2-9.1,2c-3.7,0-7.1-0.8-10.2-2.5c-3.1-1.7-5.5-4-7.3-6.9C326.7,61,325.8,57.8,325.8,54.3z M335.7,50.1h18.9
		c-0.3-1.9-1.3-3.4-3.1-4.7c-1.8-1.3-3.8-1.9-6.2-1.9c-2.3,0-4.2,0.6-5.9,1.8C337.7,46.5,336.4,48.1,335.7,50.1z M370.5,72.4V35.4
		h9.8v2.7c1.8-1.3,3.8-2.2,5.9-2.7c2.1-0.5,5-0.7,8.7-0.7v9.2c-2.5,0-4.6,0.1-6.3,0.4c-1.7,0.3-3.2,0.7-4.2,1.2
		c-1.1,0.5-1.9,1.2-2.5,2c-0.6,0.9-1,1.8-1.2,2.7c-0.2,0.9-0.3,2.1-0.3,3.5v18.6H370.5z M394.9,20.1c0-0.7,0.1-1.4,0.4-2
		c0.3-0.6,0.7-1.2,1.1-1.6s1-0.8,1.7-1.1c0.7-0.3,1.3-0.4,2.1-0.4s1.4,0.1,2.1,0.4c0.7,0.3,1.2,0.6,1.7,1.1c0.5,0.5,0.8,1,1.1,1.7
		c0.3,0.6,0.4,1.3,0.4,2s-0.1,1.4-0.4,2c-0.3,0.6-0.7,1.2-1.1,1.7c-0.5,0.5-1,0.8-1.7,1.1c-0.7,0.3-1.3,0.4-2.1,0.4
		c-1,0-1.8-0.2-2.7-0.7c-0.8-0.5-1.5-1.1-1.9-1.9C395.1,21.9,394.9,21,394.9,20.1z M395.9,20.1c0,0.6,0.1,1.1,0.3,1.6
		c0.2,0.5,0.5,0.9,0.9,1.3c0.4,0.4,0.8,0.7,1.4,0.9c0.5,0.2,1.1,0.3,1.7,0.3c0.8,0,1.5-0.2,2.2-0.6c0.7-0.4,1.2-0.9,1.6-1.5
		c0.4-0.6,0.6-1.3,0.6-2.1c0-0.8-0.2-1.5-0.6-2.1c-0.4-0.6-0.9-1.2-1.6-1.6c-0.7-0.4-1.4-0.6-2.2-0.6c-0.8,0-1.5,0.2-2.2,0.6
		c-0.7,0.4-1.2,0.9-1.6,1.6C396.1,18.6,395.9,19.3,395.9,20.1z M398.1,23v-5.9h1.8c0.2,0,0.4,0,0.6,0c0.2,0,0.3,0,0.5,0.1
		c0.2,0,0.4,0.1,0.5,0.1c0.1,0,0.3,0.1,0.4,0.2c0.1,0.1,0.3,0.2,0.3,0.3c0.1,0.1,0.2,0.3,0.2,0.4c0.1,0.2,0.1,0.4,0.1,0.6
		c0,0.9-0.5,1.5-1.5,1.8l1.5,2.5h-1.2l-1.4-2.4h-0.9V23L398.1,23L398.1,23z M399.1,19.7h1.1c0.2,0,0.4,0,0.6,0
		c0.2,0,0.3-0.1,0.4-0.1c0.1-0.1,0.2-0.1,0.3-0.3c0.1-0.1,0.1-0.3,0.1-0.5c0-0.3-0.1-0.6-0.4-0.7c-0.2-0.1-0.6-0.2-1.1-0.2h-1.1
		V19.7z">
		</path>
	</g>
</svg>